<svg width="364" height="364" viewBox="0 0 364 364" fill="none" xmlns="http://www.w3.org/2000/svg">
<path d="M6.81525 0.39434C3.67308 1.44173 0.830161 4.61383 0.171801 7.81586C-1.11499 13.9805 5.04965 20.1451 11.2143 18.8584C15.8527 17.9007 19.4438 13.1725 18.9949 8.71362C18.6657 5.57145 16.3016 2.3395 13.3091 0.873148C11.4836 0.00530931 8.67063 -0.204169 6.81525 0.39434Z" fill="#FFCC00"/>
<path d="M45.1199 0.394384C40.6012 1.89066 37.5488 6.85828 38.4764 11.2274C39.2246 14.7885 42.5463 18.1103 46.0775 18.8584C51.8831 20.0853 57.8981 14.609 57.2996 8.71366C56.9704 5.57149 54.6063 2.33954 51.6137 0.873191C49.7883 0.00535286 46.9753 -0.204125 45.1199 0.394384Z" fill="#FFCC00"/>
<path d="M83.4244 0.39434C80.2822 1.44173 77.4393 4.61383 76.7809 7.81586C75.4941 13.9805 81.6588 20.1451 87.8234 18.8584C92.4619 17.9007 96.0529 13.1725 95.604 8.71362C95.2749 5.57145 92.9108 2.3395 89.9182 0.873148C88.0928 0.00530931 85.2798 -0.204169 83.4244 0.39434Z" fill="#FFCC00"/>
<path d="M121.729 0.39434C118.587 1.44173 115.744 4.61383 115.086 7.81586C113.799 13.9805 119.963 20.1451 126.128 18.8584C130.767 17.9007 134.358 13.1725 133.909 8.71362C133.58 5.57145 131.215 2.3395 128.223 0.873148C126.397 0.00530931 123.584 -0.204169 121.729 0.39434Z" fill="#FFCC00"/>
<path d="M160.034 0.39434C156.891 1.44173 154.048 4.61383 153.39 7.81586C152.103 13.9805 158.268 20.1451 164.433 18.8584C169.071 17.9007 172.662 13.1725 172.213 8.71362C171.884 5.57145 169.52 2.3395 166.527 0.873148C164.702 0.00530931 161.889 -0.204169 160.034 0.39434Z" fill="#FFCC00"/>
<path d="M198.338 0.39434C195.196 1.44173 192.353 4.61383 191.695 7.81586C190.408 13.9805 196.573 20.1451 202.737 18.8584C207.376 17.9007 210.967 13.1725 210.518 8.71362C210.189 5.57145 207.825 2.3395 204.832 0.873148C203.007 0.00530931 200.194 -0.204169 198.338 0.39434Z" fill="#FFCC00"/>
<path d="M236.643 0.39434C233.501 1.44173 230.658 4.61383 229.999 7.81586C228.713 13.9805 234.877 20.1451 241.042 18.8584C245.68 17.9007 249.271 13.1725 248.823 8.71362C248.493 5.57145 246.129 2.3395 243.137 0.873148C241.311 0.00530931 238.498 -0.204169 236.643 0.39434Z" fill="#FFCC00"/>
<path d="M274.947 0.39434C271.805 1.44173 268.962 4.61383 268.304 7.81586C267.017 13.9805 273.182 20.1451 279.346 18.8584C283.985 17.9007 287.576 13.1725 287.127 8.71362C286.798 5.57145 284.434 2.3395 281.441 0.873148C279.616 0.00530931 276.803 -0.204169 274.947 0.39434Z" fill="#FFCC00"/>
<path d="M313.252 0.394303C310.11 1.44169 307.267 4.61379 306.609 7.81582C305.86 11.3171 307.566 15.1176 310.858 17.362C314.06 19.5765 317.711 19.6064 320.943 17.4518C326.24 13.9206 326.958 7.33701 322.529 2.93797C319.985 0.364378 316.334 -0.623162 313.252 0.394303Z" fill="#FFCC00"/>
<path d="M351.557 0.394303C348.415 1.44169 345.572 4.61379 344.913 7.81582C344.165 11.3171 345.871 15.1176 349.163 17.362C352.365 19.5765 356.016 19.6064 359.248 17.4518C364.544 13.9206 365.263 7.33701 360.834 2.93797C358.29 0.364378 354.639 -0.623162 351.557 0.394303Z" fill="#FFCC00"/>
<path d="M6.81525 38.6989C3.67308 39.7463 0.830161 42.9184 0.171801 46.1204C-1.11499 52.2851 5.04965 58.4497 11.2143 57.1629C15.8527 56.2053 19.4438 51.4771 18.9949 47.0182C18.6657 43.876 16.3016 40.6441 13.3091 39.1777C11.4836 38.3099 8.67063 38.1004 6.81525 38.6989Z" fill="#FFCC00"/>
<path d="M45.1199 38.6989C40.6012 40.1952 37.5488 45.1628 38.4764 49.532C39.2246 53.0931 42.5463 56.4148 46.0775 57.163C51.8831 58.3899 57.8981 52.9135 57.2996 47.0182C56.9704 43.8761 54.6063 40.6441 51.6137 39.1778C49.7883 38.3099 46.9753 38.1004 45.1199 38.6989Z" fill="#FFCC00"/>
<path d="M83.4244 38.6989C80.2822 39.7463 77.4393 42.9184 76.7809 46.1204C75.4941 52.2851 81.6588 58.4497 87.8234 57.1629C92.4619 56.2053 96.0529 51.4771 95.604 47.0182C95.2749 43.876 92.9108 40.6441 89.9182 39.1777C88.0928 38.3099 85.2798 38.1004 83.4244 38.6989Z" fill="#FFCC00"/>
<path d="M121.729 38.6989C118.587 39.7463 115.744 42.9184 115.086 46.1204C113.799 52.2851 119.963 58.4497 126.128 57.1629C130.767 56.2053 134.358 51.4771 133.909 47.0182C133.58 43.876 131.215 40.6441 128.223 39.1777C126.397 38.3099 123.584 38.1004 121.729 38.6989Z" fill="#FFCC00"/>
<path d="M160.034 38.6989C156.891 39.7463 154.048 42.9184 153.39 46.1204C152.103 52.2851 158.268 58.4497 164.433 57.1629C169.071 56.2053 172.662 51.4771 172.213 47.0182C171.884 43.876 169.52 40.6441 166.527 39.1777C164.702 38.3099 161.889 38.1004 160.034 38.6989Z" fill="#FFCC00"/>
<path d="M198.338 38.6989C195.196 39.7463 192.353 42.9184 191.695 46.1204C190.408 52.2851 196.573 58.4497 202.737 57.1629C207.376 56.2053 210.967 51.4771 210.518 47.0182C210.189 43.876 207.825 40.6441 204.832 39.1777C203.007 38.3099 200.194 38.1004 198.338 38.6989Z" fill="#FFCC00"/>
<path d="M236.643 38.6989C233.501 39.7463 230.658 42.9184 229.999 46.1204C228.713 52.2851 234.877 58.4497 241.042 57.1629C245.68 56.2053 249.271 51.4771 248.823 47.0182C248.493 43.876 246.129 40.6441 243.137 39.1777C241.311 38.3099 238.498 38.1004 236.643 38.6989Z" fill="#FFCC00"/>
<path d="M274.947 38.6989C271.805 39.7463 268.962 42.9184 268.304 46.1204C267.017 52.2851 273.182 58.4497 279.346 57.1629C283.985 56.2053 287.576 51.4771 287.127 47.0182C286.798 43.876 284.434 40.6441 281.441 39.1777C279.616 38.3099 276.803 38.1004 274.947 38.6989Z" fill="#FFCC00"/>
<path d="M313.252 38.699C310.11 39.7464 307.267 42.9185 306.609 46.1205C305.86 49.6218 307.566 53.4223 310.858 55.6667C314.06 57.8812 317.711 57.9111 320.943 55.7565C326.24 52.2253 326.958 45.6417 322.529 41.2427C319.985 38.6691 316.334 37.6815 313.252 38.699Z" fill="#FFCC00"/>
<path d="M351.557 38.699C348.415 39.7464 345.572 42.9185 344.913 46.1205C344.165 49.6218 345.871 53.4223 349.163 55.6667C352.365 57.8812 356.016 57.9111 359.248 55.7565C364.544 52.2253 365.263 45.6417 360.834 41.2427C358.29 38.6691 354.639 37.6815 351.557 38.699Z" fill="#FFCC00"/>
<path d="M6.81525 77.0036C3.67308 78.051 0.830161 81.2231 0.171801 84.4251C-1.11499 90.5898 5.04965 96.7544 11.2143 95.4676C15.8527 94.51 19.4438 89.7818 18.9949 85.3229C18.6657 82.1807 16.3016 78.9487 13.3091 77.4824C11.4836 76.6146 8.67063 76.4051 6.81525 77.0036Z" fill="#FFCC00"/>
<path d="M45.1199 77.0036C41.9778 78.051 39.1348 81.2231 38.4765 84.4251C37.1897 90.5898 43.3543 96.7544 49.519 95.4676C54.1574 94.51 57.7485 89.7818 57.2996 85.3229C56.9704 82.1807 54.6063 78.9487 51.6138 77.4824C49.7883 76.6146 46.9753 76.4051 45.1199 77.0036Z" fill="#FFCC00"/>
<path d="M83.4244 77.0036C80.2822 78.051 77.4393 81.2231 76.7809 84.4251C75.4941 90.5898 81.6588 96.7544 87.8234 95.4676C92.4619 94.51 96.0529 89.7818 95.604 85.3229C95.2749 82.1807 92.9108 78.9487 89.9182 77.4824C88.0928 76.6146 85.2798 76.4051 83.4244 77.0036Z" fill="#FFCC00"/>
<path d="M121.729 77.0036C118.587 78.051 115.744 81.2231 115.086 84.4251C113.799 90.5898 119.963 96.7544 126.128 95.4676C130.767 94.51 134.358 89.7818 133.909 85.3229C133.58 82.1807 131.215 78.9487 128.223 77.4824C126.397 76.6146 123.584 76.4051 121.729 77.0036Z" fill="#FFCC00"/>
<path d="M160.034 77.0036C156.891 78.051 154.048 81.2231 153.39 84.4251C152.103 90.5898 158.268 96.7544 164.433 95.4676C169.071 94.51 172.662 89.7818 172.213 85.3229C171.884 82.1807 169.52 78.9487 166.527 77.4824C164.702 76.6146 161.889 76.4051 160.034 77.0036Z" fill="#FFCC00"/>
<path d="M198.338 77.0036C195.196 78.051 192.353 81.2231 191.695 84.4251C190.408 90.5898 196.573 96.7544 202.737 95.4676C207.376 94.51 210.967 89.7818 210.518 85.3229C210.189 82.1807 207.825 78.9487 204.832 77.4824C203.007 76.6146 200.194 76.4051 198.338 77.0036Z" fill="#FFCC00"/>
<path d="M236.643 77.0036C233.501 78.051 230.658 81.2231 229.999 84.4251C228.713 90.5898 234.877 96.7544 241.042 95.4676C245.68 94.51 249.271 89.7818 248.823 85.3229C248.493 82.1807 246.129 78.9487 243.137 77.4824C241.311 76.6146 238.498 76.4051 236.643 77.0036Z" fill="#FFCC00"/>
<path d="M274.947 77.0036C271.805 78.051 268.962 81.2231 268.304 84.4251C267.017 90.5898 273.182 96.7544 279.346 95.4676C283.985 94.51 287.576 89.7818 287.127 85.3229C286.798 82.1807 284.434 78.9487 281.441 77.4824C279.616 76.6146 276.803 76.4051 274.947 77.0036Z" fill="#FFCC00"/>
<path d="M313.252 77.0036C310.11 78.051 307.267 81.2231 306.609 84.4251C305.322 90.5898 311.486 96.7544 317.651 95.4676C322.29 94.51 325.881 89.7818 325.432 85.3229C325.103 82.1807 322.738 78.9487 319.746 77.4824C317.92 76.6146 315.107 76.4051 313.252 77.0036Z" fill="#FFCC00"/>
<path d="M351.556 77.0036C348.414 78.051 345.571 81.2231 344.913 84.4251C343.626 90.5898 349.791 96.7544 355.956 95.4676C360.594 94.51 364.185 89.7818 363.736 85.3229C363.407 82.1807 361.043 78.9487 358.05 77.4824C356.225 76.6146 353.412 76.4051 351.556 77.0036Z" fill="#FFCC00"/>
<path d="M6.81525 115.308C3.67308 116.355 0.830161 119.528 0.171801 122.73C-1.11499 128.894 5.04965 135.059 11.2143 133.772C15.8527 132.814 19.4438 128.086 18.9949 123.627C18.6657 120.485 16.3016 117.253 13.3091 115.787C11.4836 114.919 8.67063 114.71 6.81525 115.308Z" fill="#FFCC00"/>
<path d="M45.1199 115.308C41.9778 116.355 39.1348 119.528 38.4765 122.73C37.1897 128.894 43.3543 135.059 49.519 133.772C54.1574 132.814 57.7485 128.086 57.2996 123.627C56.9704 120.485 54.6063 117.253 51.6138 115.787C49.7883 114.919 46.9753 114.71 45.1199 115.308Z" fill="#FFCC00"/>
<path d="M83.4244 115.308C80.2822 116.355 77.4393 119.528 76.7809 122.73C75.4941 128.894 81.6588 135.059 87.8234 133.772C92.4619 132.814 96.0529 128.086 95.604 123.627C95.2749 120.485 92.9108 117.253 89.9182 115.787C88.0928 114.919 85.2798 114.71 83.4244 115.308Z" fill="#FFCC00"/>
<path d="M121.729 115.308C118.587 116.355 115.744 119.528 115.086 122.73C113.799 128.894 119.963 135.059 126.128 133.772C130.767 132.814 134.358 128.086 133.909 123.627C133.58 120.485 131.215 117.253 128.223 115.787C126.397 114.919 123.584 114.71 121.729 115.308Z" fill="#FFCC00"/>
<path d="M160.034 115.308C156.891 116.355 154.048 119.528 153.39 122.73C152.103 128.894 158.268 135.059 164.433 133.772C169.071 132.814 172.662 128.086 172.213 123.627C171.884 120.485 169.52 117.253 166.527 115.787C164.702 114.919 161.889 114.71 160.034 115.308Z" fill="#FFCC00"/>
<path d="M198.338 115.308C195.196 116.355 192.353 119.528 191.695 122.73C190.408 128.894 196.573 135.059 202.737 133.772C207.376 132.814 210.967 128.086 210.518 123.627C210.189 120.485 207.825 117.253 204.832 115.787C203.007 114.919 200.194 114.71 198.338 115.308Z" fill="#FFCC00"/>
<path d="M236.643 115.308C233.501 116.355 230.658 119.528 229.999 122.73C228.713 128.894 234.877 135.059 241.042 133.772C245.68 132.814 249.271 128.086 248.823 123.627C248.493 120.485 246.129 117.253 243.137 115.787C241.311 114.919 238.498 114.71 236.643 115.308Z" fill="#FFCC00"/>
<path d="M274.947 115.308C271.805 116.355 268.962 119.528 268.304 122.73C267.017 128.894 273.182 135.059 279.346 133.772C283.985 132.814 287.576 128.086 287.127 123.627C286.798 120.485 284.434 117.253 281.441 115.787C279.616 114.919 276.803 114.71 274.947 115.308Z" fill="#FFCC00"/>
<path d="M313.252 115.308C310.11 116.355 307.267 119.528 306.609 122.73C305.322 128.894 311.486 135.059 317.651 133.772C322.29 132.814 325.881 128.086 325.432 123.627C325.103 120.485 322.738 117.253 319.746 115.787C317.92 114.919 315.107 114.71 313.252 115.308Z" fill="#FFCC00"/>
<path d="M351.556 115.308C348.414 116.355 345.571 119.528 344.913 122.73C343.626 128.894 349.791 135.059 355.956 133.772C360.594 132.814 364.185 128.086 363.736 123.627C363.407 120.485 361.043 117.253 358.05 115.787C356.225 114.919 353.412 114.71 351.556 115.308Z" fill="#FFCC00"/>
<path d="M6.81525 153.613C3.67308 154.66 0.830161 157.832 0.171801 161.034C-1.11499 167.199 5.04965 173.364 11.2143 172.077C15.8527 171.119 19.4438 166.391 18.9949 161.932C18.6657 158.79 16.3016 155.558 13.3091 154.092C11.4836 153.224 8.67063 153.014 6.81525 153.613Z" fill="#FFCC00"/>
<path d="M45.1199 153.613C41.9778 154.66 39.1348 157.832 38.4765 161.034C37.1897 167.199 43.3543 173.364 49.519 172.077C54.1574 171.119 57.7485 166.391 57.2996 161.932C56.9704 158.79 54.6063 155.558 51.6138 154.092C49.7883 153.224 46.9753 153.014 45.1199 153.613Z" fill="#FFCC00"/>
<path d="M83.4244 153.613C80.2822 154.66 77.4393 157.832 76.7809 161.034C75.4941 167.199 81.6588 173.364 87.8234 172.077C92.4619 171.119 96.0529 166.391 95.604 161.932C95.2749 158.79 92.9108 155.558 89.9182 154.092C88.0928 153.224 85.2798 153.014 83.4244 153.613Z" fill="#FFCC00"/>
<path d="M121.729 153.613C118.587 154.66 115.744 157.832 115.086 161.034C113.799 167.199 119.963 173.364 126.128 172.077C130.767 171.119 134.358 166.391 133.909 161.932C133.58 158.79 131.215 155.558 128.223 154.092C126.397 153.224 123.584 153.014 121.729 153.613Z" fill="#FFCC00"/>
<path d="M160.034 153.613C156.891 154.66 154.048 157.832 153.39 161.034C152.103 167.199 158.268 173.364 164.433 172.077C169.071 171.119 172.662 166.391 172.213 161.932C171.884 158.79 169.52 155.558 166.527 154.092C164.702 153.224 161.889 153.014 160.034 153.613Z" fill="#FFCC00"/>
<path d="M198.338 153.613C195.196 154.66 192.353 157.832 191.695 161.034C190.408 167.199 196.573 173.364 202.737 172.077C207.376 171.119 210.967 166.391 210.518 161.932C210.189 158.79 207.825 155.558 204.832 154.092C203.007 153.224 200.194 153.014 198.338 153.613Z" fill="#FFCC00"/>
<path d="M236.643 153.613C233.501 154.66 230.658 157.832 229.999 161.034C228.713 167.199 234.877 173.364 241.042 172.077C245.68 171.119 249.271 166.391 248.823 161.932C248.493 158.79 246.129 155.558 243.137 154.092C241.311 153.224 238.498 153.014 236.643 153.613Z" fill="#FFCC00"/>
<path d="M274.947 153.613C271.805 154.66 268.962 157.832 268.304 161.034C267.017 167.199 273.182 173.364 279.346 172.077C283.985 171.119 287.576 166.391 287.127 161.932C286.798 158.79 284.434 155.558 281.441 154.092C279.616 153.224 276.803 153.014 274.947 153.613Z" fill="#FFCC00"/>
<path d="M313.252 153.613C310.11 154.66 307.267 157.832 306.609 161.034C305.322 167.199 311.486 173.364 317.651 172.077C322.29 171.119 325.881 166.391 325.432 161.932C325.103 158.79 322.738 155.558 319.746 154.092C317.92 153.224 315.107 153.014 313.252 153.613Z" fill="#FFCC00"/>
<path d="M351.556 153.613C348.414 154.66 345.571 157.832 344.913 161.034C343.626 167.199 349.791 173.364 355.956 172.077C360.594 171.119 364.185 166.391 363.736 161.932C363.407 158.79 361.043 155.558 358.05 154.092C356.225 153.224 353.412 153.014 351.556 153.613Z" fill="#FFCC00"/>
<path d="M6.81525 191.917C3.67308 192.965 0.830161 196.137 0.171801 199.339C-1.11499 205.503 5.04965 211.668 11.2143 210.381C15.8527 209.424 19.4438 204.695 18.9949 200.237C18.6657 197.094 16.3016 193.862 13.3091 192.396C11.4836 191.528 8.67063 191.319 6.81525 191.917Z" fill="#FFCC00"/>
<path d="M45.1199 191.917C41.9778 192.965 39.1348 196.137 38.4765 199.339C37.1897 205.503 43.3543 211.668 49.519 210.381C54.1574 209.424 57.7485 204.695 57.2996 200.237C56.9704 197.094 54.6063 193.862 51.6138 192.396C49.7883 191.528 46.9753 191.319 45.1199 191.917Z" fill="#FFCC00"/>
<path d="M83.4244 191.917C80.2822 192.965 77.4393 196.137 76.7809 199.339C75.4941 205.503 81.6588 211.668 87.8234 210.381C92.4619 209.424 96.0529 204.695 95.604 200.237C95.2749 197.094 92.9108 193.862 89.9182 192.396C88.0928 191.528 85.2798 191.319 83.4244 191.917Z" fill="#FFCC00"/>
<path d="M121.729 191.917C118.587 192.965 115.744 196.137 115.086 199.339C113.799 205.503 119.963 211.668 126.128 210.381C130.767 209.424 134.358 204.695 133.909 200.237C133.58 197.094 131.215 193.862 128.223 192.396C126.397 191.528 123.584 191.319 121.729 191.917Z" fill="#FFCC00"/>
<path d="M160.034 191.917C156.891 192.965 154.048 196.137 153.39 199.339C152.103 205.503 158.268 211.668 164.433 210.381C169.071 209.424 172.662 204.695 172.213 200.237C171.884 197.094 169.52 193.862 166.527 192.396C164.702 191.528 161.889 191.319 160.034 191.917Z" fill="#FFCC00"/>
<path d="M198.338 191.917C195.196 192.965 192.353 196.137 191.695 199.339C190.408 205.503 196.573 211.668 202.737 210.381C207.376 209.424 210.967 204.695 210.518 200.237C210.189 197.094 207.825 193.862 204.832 192.396C203.007 191.528 200.194 191.319 198.338 191.917Z" fill="#FFCC00"/>
<path d="M236.643 191.917C233.501 192.965 230.658 196.137 229.999 199.339C228.713 205.503 234.877 211.668 241.042 210.381C245.68 209.424 249.271 204.695 248.823 200.237C248.493 197.094 246.129 193.862 243.137 192.396C241.311 191.528 238.498 191.319 236.643 191.917Z" fill="#FFCC00"/>
<path d="M274.947 191.917C271.805 192.965 268.962 196.137 268.304 199.339C267.017 205.503 273.182 211.668 279.346 210.381C283.985 209.424 287.576 204.695 287.127 200.237C286.798 197.094 284.434 193.862 281.441 192.396C279.616 191.528 276.803 191.319 274.947 191.917Z" fill="#FFCC00"/>
<path d="M313.252 191.917C310.11 192.965 307.267 196.137 306.609 199.339C305.322 205.503 311.486 211.668 317.651 210.381C322.29 209.424 325.881 204.695 325.432 200.237C325.103 197.094 322.738 193.862 319.746 192.396C317.92 191.528 315.107 191.319 313.252 191.917Z" fill="#FFCC00"/>
<path d="M351.556 191.917C348.414 192.965 345.571 196.137 344.913 199.339C343.626 205.503 349.791 211.668 355.956 210.381C360.594 209.424 364.185 204.695 363.736 200.237C363.407 197.094 361.043 193.862 358.05 192.396C356.225 191.528 353.412 191.319 351.556 191.917Z" fill="#FFCC00"/>
<path d="M6.81525 230.222C3.67308 231.269 0.830161 234.441 0.171801 237.643C-1.11499 243.808 5.04965 249.973 11.2143 248.686C15.8527 247.728 19.4438 243 18.9949 238.541C18.6657 235.399 16.3016 232.167 13.3091 230.701C11.4836 229.833 8.67063 229.623 6.81525 230.222Z" fill="#FFCC00"/>
<path d="M45.1199 230.222C41.9778 231.269 39.1348 234.441 38.4765 237.643C37.1897 243.808 43.3543 249.973 49.519 248.686C54.1574 247.728 57.7485 243 57.2996 238.541C56.9704 235.399 54.6063 232.167 51.6138 230.701C49.7883 229.833 46.9753 229.623 45.1199 230.222Z" fill="#FFCC00"/>
<path d="M83.4244 230.222C80.2822 231.269 77.4393 234.441 76.781 237.643C76.0328 241.145 77.7386 244.945 81.0304 247.19C84.2324 249.404 87.8833 249.434 91.1153 247.279C96.4121 243.748 97.1303 237.165 92.7013 232.766C90.1576 230.192 86.5067 229.204 83.4244 230.222Z" fill="#FFCC00"/>
<path d="M121.729 230.222C118.587 231.269 115.744 234.441 115.086 237.643C114.338 241.145 116.043 244.945 119.335 247.19C122.537 249.404 126.188 249.434 129.42 247.279C134.717 243.748 135.435 237.165 131.006 232.766C128.462 230.192 124.811 229.204 121.729 230.222Z" fill="#FFCC00"/>
<path d="M160.034 230.222C155.515 231.718 152.463 236.686 153.39 241.055C154.138 244.616 157.46 247.938 161.021 248.686C166.797 249.913 172.812 244.436 172.213 238.541C171.884 235.399 169.52 232.167 166.528 230.701C164.702 229.833 161.889 229.623 160.034 230.222Z" fill="#FFCC00"/>
<path d="M198.338 230.222C193.819 231.718 190.767 236.686 191.695 241.055C192.443 244.616 195.765 247.938 199.326 248.686C205.101 249.913 211.116 244.436 210.518 238.541C210.189 235.399 207.825 232.167 204.832 230.701C203.007 229.833 200.194 229.623 198.338 230.222Z" fill="#FFCC00"/>
<path d="M236.643 230.222C232.124 231.718 229.072 236.686 229.999 241.055C230.748 244.616 234.069 247.938 237.63 248.686C243.406 249.913 249.421 244.436 248.823 238.541C248.493 235.399 246.129 232.167 243.137 230.701C241.311 229.833 238.498 229.623 236.643 230.222Z" fill="#FFCC00"/>
<path d="M274.948 230.222C270.429 231.718 267.376 236.686 268.304 241.055C269.052 244.616 272.374 247.938 275.935 248.686C281.711 249.913 287.726 244.436 287.127 238.541C286.798 235.399 284.434 232.167 281.441 230.701C279.616 229.833 276.803 229.623 274.948 230.222Z" fill="#FFCC00"/>
<path d="M313.252 230.222C310.11 231.269 307.267 234.441 306.609 237.643C305.322 243.808 311.486 249.973 317.651 248.686C322.29 247.728 325.881 243 325.432 238.541C325.103 235.399 322.738 232.167 319.746 230.701C317.92 229.833 315.107 229.623 313.252 230.222Z" fill="#FFCC00"/>
<path d="M351.556 230.222C348.414 231.269 345.571 234.441 344.913 237.643C343.626 243.808 349.791 249.973 355.956 248.686C360.594 247.728 364.185 243 363.736 238.541C363.407 235.399 361.043 232.167 358.05 230.701C356.225 229.833 353.412 229.623 351.556 230.222Z" fill="#FFCC00"/>
<path d="M6.81525 268.527C3.67308 269.574 0.830161 272.746 0.171801 275.948C-1.11499 282.113 5.04965 288.277 11.2143 286.991C15.8527 286.033 19.4438 281.305 18.9949 276.846C18.6657 273.704 16.3016 270.472 13.3091 269.005C11.4836 268.138 8.67063 267.928 6.81525 268.527Z" fill="#FFCC00"/>
<path d="M45.1199 268.527C41.9778 269.574 39.1348 272.746 38.4765 275.948C37.1897 282.113 43.3543 288.277 49.519 286.991C54.1574 286.033 57.7485 281.305 57.2996 276.846C56.9704 273.704 54.6063 270.472 51.6138 269.005C49.7883 268.138 46.9753 267.928 45.1199 268.527Z" fill="#FFCC00"/>
<path d="M83.4244 268.527C80.2822 269.574 77.4393 272.746 76.781 275.948C76.0328 279.449 77.7386 283.25 81.0304 285.494C84.2324 287.709 87.8833 287.739 91.1153 285.584C96.4121 282.053 97.1303 275.469 92.7013 271.07C90.1576 268.497 86.5067 267.509 83.4244 268.527Z" fill="#FFCC00"/>
<path d="M121.729 268.527C118.587 269.574 115.744 272.746 115.086 275.948C114.338 279.449 116.043 283.25 119.335 285.494C122.537 287.709 126.188 287.739 129.42 285.584C134.717 282.053 135.435 275.469 131.006 271.07C128.462 268.497 124.811 267.509 121.729 268.527Z" fill="#FFCC00"/>
<path d="M160.034 268.526C155.515 270.023 152.463 274.99 153.39 279.359C154.138 282.921 157.46 286.242 161.021 286.99C166.797 288.217 172.812 282.741 172.213 276.846C171.884 273.704 169.52 270.472 166.528 269.005C164.702 268.137 161.889 267.928 160.034 268.526Z" fill="#FFCC00"/>
<path d="M198.338 268.526C193.819 270.023 190.767 274.99 191.695 279.359C192.443 282.921 195.765 286.242 199.326 286.99C205.101 288.217 211.116 282.741 210.518 276.846C210.189 273.704 207.825 270.472 204.832 269.005C203.007 268.137 200.194 267.928 198.338 268.526Z" fill="#FFCC00"/>
<path d="M236.643 268.526C232.124 270.023 229.072 274.99 229.999 279.359C230.748 282.921 234.069 286.242 237.63 286.99C243.406 288.217 249.421 282.741 248.823 276.846C248.493 273.704 246.129 270.472 243.137 269.005C241.311 268.137 238.498 267.928 236.643 268.526Z" fill="#FFCC00"/>
<path d="M274.948 268.526C270.429 270.023 267.376 274.99 268.304 279.359C269.052 282.921 272.374 286.242 275.935 286.99C281.711 288.217 287.726 282.741 287.127 276.846C286.798 273.704 284.434 270.472 281.441 269.005C279.616 268.137 276.803 267.928 274.948 268.526Z" fill="#FFCC00"/>
<path d="M313.252 268.527C310.11 269.574 307.267 272.746 306.609 275.948C305.322 282.113 311.486 288.277 317.651 286.991C322.29 286.033 325.881 281.305 325.432 276.846C325.103 273.704 322.738 270.472 319.746 269.005C317.92 268.138 315.107 267.928 313.252 268.527Z" fill="#FFCC00"/>
<path d="M351.556 268.527C348.414 269.574 345.571 272.746 344.913 275.948C343.626 282.113 349.791 288.277 355.956 286.991C360.594 286.033 364.185 281.305 363.736 276.846C363.407 273.704 361.043 270.472 358.05 269.005C356.225 268.138 353.412 267.928 351.556 268.527Z" fill="#FFCC00"/>
<path d="M6.81525 306.831C3.67308 307.878 0.830161 311.051 0.171801 314.253C-1.11499 320.417 5.04965 326.582 11.2143 325.295C15.8527 324.338 19.4438 319.609 18.9949 315.15C18.6657 312.008 16.3016 308.776 13.3091 307.31C11.4836 306.442 8.67063 306.233 6.81525 306.831Z" fill="#FFCC00"/>
<path d="M45.1199 306.831C41.9778 307.878 39.1348 311.051 38.4765 314.253C37.1897 320.417 43.3543 326.582 49.519 325.295C54.1574 324.338 57.7485 319.609 57.2996 315.15C56.9704 312.008 54.6063 308.776 51.6138 307.31C49.7883 306.442 46.9753 306.233 45.1199 306.831Z" fill="#FFCC00"/>
<path d="M83.4244 306.831C80.2822 307.878 77.4393 311.051 76.781 314.253C76.0328 317.754 77.7386 321.554 81.0304 323.799C84.2324 326.013 87.8833 326.043 91.1153 323.889C96.4121 320.357 97.1303 313.774 92.7013 309.375C90.1576 306.801 86.5067 305.814 83.4244 306.831Z" fill="#FFCC00"/>
<path d="M121.729 306.831C118.587 307.878 115.744 311.051 115.086 314.253C114.338 317.754 116.043 321.554 119.335 323.799C122.537 326.013 126.188 326.043 129.42 323.889C134.717 320.357 135.435 313.774 131.006 309.375C128.462 306.801 124.811 305.814 121.729 306.831Z" fill="#FFCC00"/>
<path d="M160.034 306.831C156.891 307.878 154.048 311.051 153.39 314.253C152.103 320.417 158.268 326.582 164.433 325.295C169.071 324.338 172.662 319.609 172.213 315.15C171.884 312.008 169.52 308.776 166.527 307.31C164.702 306.442 161.889 306.233 160.034 306.831Z" fill="#FFCC00"/>
<path d="M198.338 306.831C195.196 307.878 192.353 311.051 191.695 314.253C190.408 320.417 196.573 326.582 202.737 325.295C207.376 324.338 210.967 319.609 210.518 315.15C210.189 312.008 207.825 308.776 204.832 307.31C203.007 306.442 200.194 306.233 198.338 306.831Z" fill="#FFCC00"/>
<path d="M236.643 306.831C233.501 307.878 230.658 311.051 229.999 314.253C228.713 320.417 234.877 326.582 241.042 325.295C245.68 324.338 249.271 319.609 248.823 315.15C248.493 312.008 246.129 308.776 243.137 307.31C241.311 306.442 238.498 306.233 236.643 306.831Z" fill="#FFCC00"/>
<path d="M274.947 306.831C271.805 307.878 268.962 311.051 268.304 314.253C267.017 320.417 273.182 326.582 279.346 325.295C283.985 324.338 287.576 319.609 287.127 315.15C286.798 312.008 284.434 308.776 281.441 307.31C279.616 306.442 276.803 306.233 274.947 306.831Z" fill="#FFCC00"/>
<path d="M313.252 306.831C310.11 307.878 307.267 311.051 306.609 314.253C305.322 320.417 311.486 326.582 317.651 325.295C322.29 324.338 325.881 319.609 325.432 315.15C325.103 312.008 322.738 308.776 319.746 307.31C317.92 306.442 315.107 306.233 313.252 306.831Z" fill="#FFCC00"/>
<path d="M351.556 306.831C348.414 307.878 345.571 311.051 344.913 314.253C343.626 320.417 349.791 326.582 355.956 325.295C360.594 324.338 364.185 319.609 363.736 315.15C363.407 312.008 361.043 308.776 358.05 307.31C356.225 306.442 353.412 306.233 351.556 306.831Z" fill="#FFCC00"/>
<path d="M6.81525 345.136C3.67308 346.183 0.830161 349.355 0.171801 352.557C-1.11499 358.722 5.04965 364.886 11.2143 363.6C15.8527 362.642 19.4438 357.914 18.9949 353.455C18.6657 350.313 16.3016 347.081 13.3091 345.614C11.4836 344.747 8.67063 344.537 6.81525 345.136Z" fill="#FFCC00"/>
<path d="M45.1199 345.136C41.9778 346.183 39.1348 349.355 38.4765 352.557C37.1897 358.722 43.3543 364.886 49.519 363.6C54.1574 362.642 57.7485 357.914 57.2996 353.455C56.9704 350.313 54.6063 347.081 51.6138 345.614C49.7883 344.747 46.9753 344.537 45.1199 345.136Z" fill="#FFCC00"/>
<path d="M83.4244 345.136C80.2822 346.183 77.4393 349.355 76.7809 352.557C75.4941 358.722 81.6588 364.886 87.8234 363.6C92.4619 362.642 96.0529 357.914 95.604 353.455C95.2749 350.313 92.9108 347.081 89.9182 345.614C88.0928 344.747 85.2798 344.537 83.4244 345.136Z" fill="#FFCC00"/>
<path d="M121.729 345.136C118.587 346.183 115.744 349.355 115.086 352.557C113.799 358.722 119.963 364.886 126.128 363.6C130.767 362.642 134.358 357.914 133.909 353.455C133.58 350.313 131.215 347.081 128.223 345.614C126.397 344.747 123.584 344.537 121.729 345.136Z" fill="#FFCC00"/>
<path d="M160.034 345.136C156.891 346.183 154.048 349.355 153.39 352.557C152.103 358.722 158.268 364.886 164.433 363.6C169.071 362.642 172.662 357.914 172.213 353.455C171.884 350.313 169.52 347.081 166.527 345.614C164.702 344.747 161.889 344.537 160.034 345.136Z" fill="#FFCC00"/>
<path d="M198.338 345.136C195.196 346.183 192.353 349.355 191.695 352.557C190.408 358.722 196.573 364.886 202.737 363.6C207.376 362.642 210.967 357.914 210.518 353.455C210.189 350.313 207.825 347.081 204.832 345.614C203.007 344.747 200.194 344.537 198.338 345.136Z" fill="#FFCC00"/>
<path d="M236.643 345.136C233.501 346.183 230.658 349.355 229.999 352.557C228.713 358.722 234.877 364.886 241.042 363.6C245.68 362.642 249.271 357.914 248.823 353.455C248.493 350.313 246.129 347.081 243.137 345.614C241.311 344.747 238.498 344.537 236.643 345.136Z" fill="#FFCC00"/>
<path d="M274.947 345.136C271.805 346.183 268.962 349.355 268.304 352.557C267.017 358.722 273.182 364.886 279.346 363.6C283.985 362.642 287.576 357.914 287.127 353.455C286.798 350.313 284.434 347.081 281.441 345.614C279.616 344.747 276.803 344.537 274.947 345.136Z" fill="#FFCC00"/>
<path d="M313.252 345.136C310.11 346.183 307.267 349.355 306.609 352.557C305.322 358.722 311.486 364.886 317.651 363.6C322.29 362.642 325.881 357.914 325.432 353.455C325.103 350.313 322.738 347.081 319.746 345.614C317.92 344.747 315.107 344.537 313.252 345.136Z" fill="#FFCC00"/>
<path d="M351.556 345.136C348.414 346.183 345.571 349.355 344.913 352.557C343.626 358.722 349.791 364.886 355.956 363.6C360.594 362.642 364.185 357.914 363.736 353.455C363.407 350.313 361.043 347.081 358.05 345.614C356.225 344.747 353.412 344.537 351.556 345.136Z" fill="#FFCC00"/>
</svg>
