<svg width="190" height="190" viewBox="0 0 190 190" fill="none" xmlns="http://www.w3.org/2000/svg">
<path d="M3.55962 0.207347C1.91846 0.754401 0.433595 2.4112 0.0897318 4.08362C-0.582364 7.30343 2.63744 10.5232 5.85725 9.85114C8.27992 9.35098 10.1555 6.88141 9.92109 4.55252C9.74916 2.91136 8.51437 1.22331 6.95136 0.457429C5.99792 0.00415486 4.52869 -0.105256 3.55962 0.207347Z" fill="#FFE680"/>
<path d="M23.5662 0.207328C21.2061 0.988835 19.6118 3.58344 20.0963 5.86544C20.4871 7.72542 22.222 9.46037 24.0664 9.85112C27.0986 10.492 30.2403 7.63164 29.9277 4.55251C29.7558 2.91134 28.521 1.22329 26.958 0.45741C26.0045 0.0041362 24.5353 -0.105275 23.5662 0.207328Z" fill="#FFE680"/>
<path d="M43.5727 0.207347C41.9316 0.754401 40.4467 2.4112 40.1029 4.08362C39.4308 7.30343 42.6506 10.5232 45.8704 9.85114C48.293 9.35098 50.1687 6.88141 49.9342 4.55252C49.7623 2.91136 48.5275 1.22331 46.9645 0.457429C46.011 0.00415486 44.5418 -0.105256 43.5727 0.207347Z" fill="#FFE680"/>
<path d="M63.5794 0.207347C61.9382 0.754401 60.4533 2.4112 60.1095 4.08362C59.4374 7.30343 62.6572 10.5232 65.877 9.85114C68.2997 9.35098 70.1753 6.88141 69.9408 4.55252C69.7689 2.91136 68.5341 1.22331 66.9711 0.457429C66.0177 0.00415486 64.5484 -0.105256 63.5794 0.207347Z" fill="#FFE680"/>
<path d="M83.5859 0.207347C81.9448 0.754401 80.4599 2.4112 80.116 4.08362C79.4439 7.30343 82.6637 10.5232 85.8836 9.85114C88.3062 9.35098 90.1818 6.88141 89.9474 4.55252C89.7755 2.91136 88.5407 1.22331 86.9777 0.457429C86.0242 0.00415486 84.555 -0.105256 83.5859 0.207347Z" fill="#FFE680"/>
<path d="M103.592 0.207347C101.951 0.754401 100.466 2.4112 100.123 4.08362C99.4505 7.30343 102.67 10.5232 105.89 9.85114C108.313 9.35098 110.188 6.88141 109.954 4.55252C109.782 2.91136 108.547 1.22331 106.984 0.457429C106.031 0.00415486 104.562 -0.105256 103.592 0.207347Z" fill="#FFE680"/>
<path d="M123.599 0.207347C121.958 0.754401 120.473 2.4112 120.129 4.08362C119.457 7.30343 122.677 10.5232 125.897 9.85114C128.319 9.35098 130.195 6.88141 129.96 4.55252C129.789 2.91136 128.554 1.22331 126.991 0.457429C126.037 0.00415486 124.568 -0.105256 123.599 0.207347Z" fill="#FFE680"/>
<path d="M143.606 0.207347C141.964 0.754401 140.48 2.4112 140.136 4.08362C139.464 7.30343 142.683 10.5232 145.903 9.85114C148.326 9.35098 150.201 6.88141 149.967 4.55252C149.795 2.91136 148.56 1.22331 146.997 0.457429C146.044 0.00415486 144.575 -0.105256 143.606 0.207347Z" fill="#FFE680"/>
<path d="M163.612 0.207333C161.971 0.754387 160.486 2.41118 160.142 4.08361C159.752 5.91233 160.643 7.89736 162.362 9.06962C164.034 10.2262 165.941 10.2419 167.629 9.11651C170.396 7.27215 170.771 3.83352 168.458 1.53589C167.129 0.191702 165.222 -0.324092 163.612 0.207333Z" fill="#FFE680"/>
<path d="M183.619 0.207333C181.978 0.754387 180.493 2.41118 180.149 4.08361C179.758 5.91233 180.649 7.89736 182.368 9.06962C184.041 10.2262 185.948 10.2419 187.636 9.11651C190.402 7.27215 190.777 3.83352 188.464 1.53589C187.136 0.191702 185.229 -0.324092 183.619 0.207333Z" fill="#FFE680"/>
<path d="M3.55962 20.2139C1.91846 20.761 0.433595 22.4178 0.0897318 24.0902C-0.582364 27.31 2.63744 30.5298 5.85725 29.8577C8.27992 29.3575 10.1555 26.888 9.92109 24.5591C9.74916 22.9179 8.51437 21.2299 6.95136 20.464C5.99792 20.0107 4.52869 19.9013 3.55962 20.2139Z" fill="#FFE680"/>
<path d="M23.5662 20.2139C21.2061 20.9954 19.6118 23.59 20.0963 25.872C20.4871 27.732 22.222 29.4669 24.0664 29.8577C27.0986 30.4985 30.2403 27.6382 29.9277 24.5591C29.7558 22.9179 28.521 21.2298 26.958 20.464C26.0045 20.0107 24.5353 19.9013 23.5662 20.2139Z" fill="#FFE680"/>
<path d="M43.5727 20.2139C41.9316 20.761 40.4467 22.4178 40.1029 24.0902C39.4308 27.31 42.6506 30.5298 45.8704 29.8577C48.293 29.3575 50.1687 26.888 49.9342 24.5591C49.7623 22.9179 48.5275 21.2299 46.9645 20.464C46.011 20.0107 44.5418 19.9013 43.5727 20.2139Z" fill="#FFE680"/>
<path d="M63.5794 20.2139C61.9382 20.761 60.4533 22.4178 60.1095 24.0902C59.4374 27.31 62.6572 30.5298 65.877 29.8577C68.2997 29.3575 70.1753 26.888 69.9408 24.5591C69.7689 22.9179 68.5341 21.2299 66.9711 20.464C66.0177 20.0107 64.5484 19.9013 63.5794 20.2139Z" fill="#FFE680"/>
<path d="M83.5859 20.2139C81.9448 20.761 80.4599 22.4178 80.116 24.0902C79.4439 27.31 82.6637 30.5298 85.8836 29.8577C88.3062 29.3575 90.1818 26.888 89.9474 24.5591C89.7755 22.9179 88.5407 21.2299 86.9777 20.464C86.0242 20.0107 84.555 19.9013 83.5859 20.2139Z" fill="#FFE680"/>
<path d="M103.592 20.2139C101.951 20.761 100.466 22.4178 100.123 24.0902C99.4505 27.31 102.67 30.5298 105.89 29.8577C108.313 29.3575 110.188 26.888 109.954 24.5591C109.782 22.9179 108.547 21.2299 106.984 20.464C106.031 20.0107 104.562 19.9013 103.592 20.2139Z" fill="#FFE680"/>
<path d="M123.599 20.2139C121.958 20.761 120.473 22.4178 120.129 24.0902C119.457 27.31 122.677 30.5298 125.897 29.8577C128.319 29.3575 130.195 26.888 129.96 24.5591C129.789 22.9179 128.554 21.2299 126.991 20.464C126.037 20.0107 124.568 19.9013 123.599 20.2139Z" fill="#FFE680"/>
<path d="M143.606 20.2139C141.964 20.761 140.48 22.4178 140.136 24.0902C139.464 27.31 142.683 30.5298 145.903 29.8577C148.326 29.3575 150.201 26.888 149.967 24.5591C149.795 22.9179 148.56 21.2299 146.997 20.464C146.044 20.0107 144.575 19.9013 143.606 20.2139Z" fill="#FFE680"/>
<path d="M163.612 20.2139C161.971 20.7609 160.486 22.4177 160.142 24.0902C159.752 25.9189 160.643 27.9039 162.362 29.0762C164.034 30.2328 165.941 30.2484 167.629 29.1231C170.396 27.2787 170.771 23.8401 168.458 21.5425C167.129 20.1983 165.222 19.6825 163.612 20.2139Z" fill="#FFE680"/>
<path d="M183.619 20.2139C181.978 20.7609 180.493 22.4177 180.149 24.0902C179.758 25.9189 180.649 27.9039 182.368 29.0762C184.041 30.2328 185.948 30.2484 187.636 29.1231C190.402 27.2787 190.777 23.8401 188.464 21.5425C187.136 20.1983 185.229 19.6825 183.619 20.2139Z" fill="#FFE680"/>
<path d="M3.55962 40.2205C1.91846 40.7675 0.433595 42.4243 0.0897318 44.0967C-0.582364 47.3166 2.63744 50.5364 5.85725 49.8643C8.27992 49.3641 10.1555 46.8945 9.92109 44.5656C9.74916 42.9245 8.51437 41.2364 6.95136 40.4706C5.99792 40.0173 4.52869 39.9079 3.55962 40.2205Z" fill="#FFE680"/>
<path d="M23.5662 40.2205C21.925 40.7675 20.4402 42.4243 20.0963 44.0967C19.4242 47.3166 22.644 50.5364 25.8638 49.8643C28.2865 49.3641 30.1621 46.8945 29.9276 44.5656C29.7557 42.9245 28.5209 41.2364 26.9579 40.4706C26.0045 40.0173 24.5353 39.9079 23.5662 40.2205Z" fill="#FFE680"/>
<path d="M43.5727 40.2205C41.9316 40.7675 40.4467 42.4243 40.1029 44.0967C39.4308 47.3166 42.6506 50.5364 45.8704 49.8643C48.293 49.3641 50.1687 46.8945 49.9342 44.5656C49.7623 42.9245 48.5275 41.2364 46.9645 40.4706C46.011 40.0173 44.5418 39.9079 43.5727 40.2205Z" fill="#FFE680"/>
<path d="M63.5794 40.2205C61.9382 40.7675 60.4533 42.4243 60.1095 44.0967C59.4374 47.3166 62.6572 50.5364 65.877 49.8643C68.2997 49.3641 70.1753 46.8945 69.9408 44.5656C69.7689 42.9245 68.5341 41.2364 66.9711 40.4706C66.0177 40.0173 64.5484 39.9079 63.5794 40.2205Z" fill="#FFE680"/>
<path d="M83.5859 40.2205C81.9448 40.7675 80.4599 42.4243 80.116 44.0967C79.4439 47.3166 82.6637 50.5364 85.8836 49.8643C88.3062 49.3641 90.1818 46.8945 89.9474 44.5656C89.7755 42.9245 88.5407 41.2364 86.9777 40.4706C86.0242 40.0173 84.555 39.9079 83.5859 40.2205Z" fill="#FFE680"/>
<path d="M103.592 40.2205C101.951 40.7675 100.466 42.4243 100.123 44.0967C99.4505 47.3166 102.67 50.5364 105.89 49.8643C108.313 49.3641 110.188 46.8945 109.954 44.5656C109.782 42.9245 108.547 41.2364 106.984 40.4706C106.031 40.0173 104.562 39.9079 103.592 40.2205Z" fill="#FFE680"/>
<path d="M123.599 40.2205C121.958 40.7675 120.473 42.4243 120.129 44.0967C119.457 47.3166 122.677 50.5364 125.897 49.8643C128.319 49.3641 130.195 46.8945 129.96 44.5656C129.789 42.9245 128.554 41.2364 126.991 40.4706C126.037 40.0173 124.568 39.9079 123.599 40.2205Z" fill="#FFE680"/>
<path d="M143.606 40.2205C141.964 40.7675 140.48 42.4243 140.136 44.0967C139.464 47.3166 142.683 50.5364 145.903 49.8643C148.326 49.3641 150.201 46.8945 149.967 44.5656C149.795 42.9245 148.56 41.2364 146.997 40.4706C146.044 40.0173 144.575 39.9079 143.606 40.2205Z" fill="#FFE680"/>
<path d="M163.612 40.2205C161.971 40.7675 160.486 42.4243 160.142 44.0967C159.47 47.3166 162.69 50.5364 165.91 49.8643C168.332 49.3641 170.208 46.8945 169.974 44.5656C169.802 42.9245 168.567 41.2364 167.004 40.4706C166.05 40.0173 164.581 39.9079 163.612 40.2205Z" fill="#FFE680"/>
<path d="M183.619 40.2205C181.978 40.7675 180.493 42.4243 180.149 44.0967C179.477 47.3166 182.697 50.5364 185.916 49.8643C188.339 49.3641 190.215 46.8945 189.98 44.5656C189.808 42.9245 188.573 41.2364 187.01 40.4706C186.057 40.0173 184.588 39.9079 183.619 40.2205Z" fill="#FFE680"/>
<path d="M3.55962 60.227C1.91846 60.7741 0.433595 62.4309 0.0897318 64.1033C-0.582364 67.3231 2.63744 70.5429 5.85725 69.8708C8.27992 69.3707 10.1555 66.9011 9.92109 64.5722C9.74916 62.931 8.51437 61.243 6.95136 60.4771C5.99792 60.0238 4.52869 59.9144 3.55962 60.227Z" fill="#FFE680"/>
<path d="M23.5662 60.227C21.925 60.7741 20.4402 62.4309 20.0963 64.1033C19.4242 67.3231 22.644 70.5429 25.8638 69.8708C28.2865 69.3707 30.1621 66.9011 29.9276 64.5722C29.7557 62.931 28.5209 61.243 26.9579 60.4771C26.0045 60.0238 24.5353 59.9144 23.5662 60.227Z" fill="#FFE680"/>
<path d="M43.5727 60.227C41.9316 60.7741 40.4467 62.4309 40.1029 64.1033C39.4308 67.3231 42.6506 70.5429 45.8704 69.8708C48.293 69.3707 50.1687 66.9011 49.9342 64.5722C49.7623 62.931 48.5275 61.243 46.9645 60.4771C46.011 60.0238 44.5418 59.9144 43.5727 60.227Z" fill="#FFE680"/>
<path d="M63.5794 60.227C61.9382 60.7741 60.4533 62.4309 60.1095 64.1033C59.4374 67.3231 62.6572 70.5429 65.877 69.8708C68.2997 69.3707 70.1753 66.9011 69.9408 64.5722C69.7689 62.931 68.5341 61.243 66.9711 60.4771C66.0177 60.0238 64.5484 59.9144 63.5794 60.227Z" fill="#FFE680"/>
<path d="M83.5859 60.227C81.9448 60.7741 80.4599 62.4309 80.116 64.1033C79.4439 67.3231 82.6637 70.5429 85.8836 69.8708C88.3062 69.3707 90.1818 66.9011 89.9474 64.5722C89.7755 62.931 88.5407 61.243 86.9777 60.4771C86.0242 60.0238 84.555 59.9144 83.5859 60.227Z" fill="#FFE680"/>
<path d="M103.592 60.227C101.951 60.7741 100.466 62.4309 100.123 64.1033C99.4505 67.3231 102.67 70.5429 105.89 69.8708C108.313 69.3707 110.188 66.9011 109.954 64.5722C109.782 62.931 108.547 61.243 106.984 60.4771C106.031 60.0238 104.562 59.9144 103.592 60.227Z" fill="#FFE680"/>
<path d="M123.599 60.227C121.958 60.7741 120.473 62.4309 120.129 64.1033C119.457 67.3231 122.677 70.5429 125.897 69.8708C128.319 69.3707 130.195 66.9011 129.96 64.5722C129.789 62.931 128.554 61.243 126.991 60.4771C126.037 60.0238 124.568 59.9144 123.599 60.227Z" fill="#FFE680"/>
<path d="M143.606 60.227C141.964 60.7741 140.48 62.4309 140.136 64.1033C139.464 67.3231 142.683 70.5429 145.903 69.8708C148.326 69.3707 150.201 66.9011 149.967 64.5722C149.795 62.931 148.56 61.243 146.997 60.4771C146.044 60.0238 144.575 59.9144 143.606 60.227Z" fill="#FFE680"/>
<path d="M163.612 60.227C161.971 60.7741 160.486 62.4309 160.142 64.1033C159.47 67.3231 162.69 70.5429 165.91 69.8708C168.332 69.3707 170.208 66.9011 169.974 64.5722C169.802 62.931 168.567 61.243 167.004 60.4771C166.05 60.0238 164.581 59.9144 163.612 60.227Z" fill="#FFE680"/>
<path d="M183.619 60.227C181.978 60.7741 180.493 62.4309 180.149 64.1033C179.477 67.3231 182.697 70.5429 185.916 69.8708C188.339 69.3707 190.215 66.9011 189.98 64.5722C189.808 62.931 188.573 61.243 187.01 60.4771C186.057 60.0238 184.588 59.9144 183.619 60.227Z" fill="#FFE680"/>
<path d="M3.55962 80.2336C1.91846 80.7807 0.433595 82.4374 0.0897318 84.1099C-0.582364 87.3297 2.63744 90.5495 5.85725 89.8774C8.27992 89.3772 10.1555 86.9077 9.92109 84.5788C9.74916 82.9376 8.51437 81.2496 6.95136 80.4837C5.99792 80.0304 4.52869 79.921 3.55962 80.2336Z" fill="#FFE680"/>
<path d="M23.5662 80.2336C21.925 80.7807 20.4402 82.4374 20.0963 84.1099C19.4242 87.3297 22.644 90.5495 25.8638 89.8774C28.2865 89.3772 30.1621 86.9077 29.9276 84.5788C29.7557 82.9376 28.5209 81.2496 26.9579 80.4837C26.0045 80.0304 24.5353 79.921 23.5662 80.2336Z" fill="#FFE680"/>
<path d="M43.5727 80.2336C41.9316 80.7807 40.4467 82.4374 40.1029 84.1099C39.4308 87.3297 42.6506 90.5495 45.8704 89.8774C48.293 89.3772 50.1687 86.9077 49.9342 84.5788C49.7623 82.9376 48.5275 81.2496 46.9645 80.4837C46.011 80.0304 44.5418 79.921 43.5727 80.2336Z" fill="#FFE680"/>
<path d="M63.5794 80.2336C61.9382 80.7807 60.4533 82.4374 60.1095 84.1099C59.4374 87.3297 62.6572 90.5495 65.877 89.8774C68.2997 89.3772 70.1753 86.9077 69.9408 84.5788C69.7689 82.9376 68.5341 81.2496 66.9711 80.4837C66.0177 80.0304 64.5484 79.921 63.5794 80.2336Z" fill="#FFE680"/>
<path d="M83.5859 80.2336C81.9448 80.7807 80.4599 82.4374 80.116 84.1099C79.4439 87.3297 82.6637 90.5495 85.8836 89.8774C88.3062 89.3772 90.1818 86.9077 89.9474 84.5788C89.7755 82.9376 88.5407 81.2496 86.9777 80.4837C86.0242 80.0304 84.555 79.921 83.5859 80.2336Z" fill="#FFE680"/>
<path d="M103.592 80.2336C101.951 80.7807 100.466 82.4374 100.123 84.1099C99.4505 87.3297 102.67 90.5495 105.89 89.8774C108.313 89.3772 110.188 86.9077 109.954 84.5788C109.782 82.9376 108.547 81.2496 106.984 80.4837C106.031 80.0304 104.562 79.921 103.592 80.2336Z" fill="#FFE680"/>
<path d="M123.599 80.2336C121.958 80.7807 120.473 82.4374 120.129 84.1099C119.457 87.3297 122.677 90.5495 125.897 89.8774C128.319 89.3772 130.195 86.9077 129.96 84.5788C129.789 82.9376 128.554 81.2496 126.991 80.4837C126.037 80.0304 124.568 79.921 123.599 80.2336Z" fill="#FFE680"/>
<path d="M143.606 80.2336C141.964 80.7807 140.48 82.4374 140.136 84.1099C139.464 87.3297 142.683 90.5495 145.903 89.8774C148.326 89.3772 150.201 86.9077 149.967 84.5788C149.795 82.9376 148.56 81.2496 146.997 80.4837C146.044 80.0304 144.575 79.921 143.606 80.2336Z" fill="#FFE680"/>
<path d="M163.612 80.2336C161.971 80.7807 160.486 82.4374 160.142 84.1099C159.47 87.3297 162.69 90.5495 165.91 89.8774C168.332 89.3772 170.208 86.9077 169.974 84.5788C169.802 82.9376 168.567 81.2496 167.004 80.4837C166.05 80.0304 164.581 79.921 163.612 80.2336Z" fill="#FFE680"/>
<path d="M183.619 80.2336C181.978 80.7807 180.493 82.4374 180.149 84.1099C179.477 87.3297 182.697 90.5495 185.916 89.8774C188.339 89.3772 190.215 86.9077 189.98 84.5788C189.808 82.9376 188.573 81.2496 187.01 80.4837C186.057 80.0304 184.588 79.921 183.619 80.2336Z" fill="#FFE680"/>
<path d="M3.55962 100.24C1.91846 100.787 0.433595 102.444 0.0897318 104.116C-0.582364 107.336 2.63744 110.556 5.85725 109.884C8.27992 109.384 10.1555 106.914 9.92109 104.585C9.74916 102.944 8.51437 101.256 6.95136 100.49C5.99792 100.037 4.52869 99.9276 3.55962 100.24Z" fill="#FFE680"/>
<path d="M23.5662 100.24C21.925 100.787 20.4402 102.444 20.0963 104.116C19.4242 107.336 22.644 110.556 25.8638 109.884C28.2865 109.384 30.1621 106.914 29.9276 104.585C29.7557 102.944 28.5209 101.256 26.9579 100.49C26.0045 100.037 24.5353 99.9276 23.5662 100.24Z" fill="#FFE680"/>
<path d="M43.5727 100.24C41.9316 100.787 40.4467 102.444 40.1029 104.116C39.4308 107.336 42.6506 110.556 45.8704 109.884C48.293 109.384 50.1687 106.914 49.9342 104.585C49.7623 102.944 48.5275 101.256 46.9645 100.49C46.011 100.037 44.5418 99.9276 43.5727 100.24Z" fill="#FFE680"/>
<path d="M63.5794 100.24C61.9382 100.787 60.4533 102.444 60.1095 104.116C59.4374 107.336 62.6572 110.556 65.877 109.884C68.2997 109.384 70.1753 106.914 69.9408 104.585C69.7689 102.944 68.5341 101.256 66.9711 100.49C66.0177 100.037 64.5484 99.9276 63.5794 100.24Z" fill="#FFE680"/>
<path d="M83.5859 100.24C81.9448 100.787 80.4599 102.444 80.116 104.116C79.4439 107.336 82.6637 110.556 85.8836 109.884C88.3062 109.384 90.1818 106.914 89.9474 104.585C89.7755 102.944 88.5407 101.256 86.9777 100.49C86.0242 100.037 84.555 99.9276 83.5859 100.24Z" fill="#FFE680"/>
<path d="M103.592 100.24C101.951 100.787 100.466 102.444 100.123 104.116C99.4505 107.336 102.67 110.556 105.89 109.884C108.313 109.384 110.188 106.914 109.954 104.585C109.782 102.944 108.547 101.256 106.984 100.49C106.031 100.037 104.562 99.9276 103.592 100.24Z" fill="#FFE680"/>
<path d="M123.599 100.24C121.958 100.787 120.473 102.444 120.129 104.116C119.457 107.336 122.677 110.556 125.897 109.884C128.319 109.384 130.195 106.914 129.96 104.585C129.789 102.944 128.554 101.256 126.991 100.49C126.037 100.037 124.568 99.9276 123.599 100.24Z" fill="#FFE680"/>
<path d="M143.606 100.24C141.964 100.787 140.48 102.444 140.136 104.116C139.464 107.336 142.683 110.556 145.903 109.884C148.326 109.384 150.201 106.914 149.967 104.585C149.795 102.944 148.56 101.256 146.997 100.49C146.044 100.037 144.575 99.9276 143.606 100.24Z" fill="#FFE680"/>
<path d="M163.612 100.24C161.971 100.787 160.486 102.444 160.142 104.116C159.47 107.336 162.69 110.556 165.91 109.884C168.332 109.384 170.208 106.914 169.974 104.585C169.802 102.944 168.567 101.256 167.004 100.49C166.05 100.037 164.581 99.9276 163.612 100.24Z" fill="#FFE680"/>
<path d="M183.619 100.24C181.978 100.787 180.493 102.444 180.149 104.116C179.477 107.336 182.697 110.556 185.916 109.884C188.339 109.384 190.215 106.914 189.98 104.585C189.808 102.944 188.573 101.256 187.01 100.49C186.057 100.037 184.588 99.9276 183.619 100.24Z" fill="#FFE680"/>
<path d="M3.55962 120.247C1.91846 120.794 0.433595 122.451 0.0897318 124.123C-0.582364 127.343 2.63744 130.563 5.85725 129.891C8.27992 129.39 10.1555 126.921 9.92109 124.592C9.74916 122.951 8.51437 121.263 6.95136 120.497C5.99792 120.044 4.52869 119.934 3.55962 120.247Z" fill="#FFE680"/>
<path d="M23.5662 120.247C21.925 120.794 20.4402 122.451 20.0963 124.123C19.4242 127.343 22.644 130.563 25.8638 129.891C28.2865 129.39 30.1621 126.921 29.9276 124.592C29.7557 122.951 28.5209 121.263 26.9579 120.497C26.0045 120.044 24.5353 119.934 23.5662 120.247Z" fill="#FFE680"/>
<path d="M43.5728 120.247C41.9316 120.794 40.4467 122.451 40.1029 124.123C39.7121 125.952 40.603 127.937 42.3223 129.109C43.9948 130.266 45.9016 130.281 47.5897 129.156C50.3562 127.312 50.7314 123.873 48.4181 121.575C47.0895 120.231 45.1827 119.715 43.5728 120.247Z" fill="#FFE680"/>
<path d="M63.5793 120.247C61.9382 120.794 60.4533 122.451 60.1094 124.123C59.7187 125.952 60.6096 127.937 62.3289 129.109C64.0013 130.266 65.9082 130.281 67.5963 129.156C70.3628 127.312 70.7379 123.873 68.4247 121.575C67.0961 120.231 65.1892 119.715 63.5793 120.247Z" fill="#FFE680"/>
<path d="M83.5859 120.247C81.2258 121.028 79.6315 123.623 80.116 125.905C80.5068 127.765 82.2417 129.5 84.1017 129.891C87.1183 130.531 90.26 127.671 89.9474 124.592C89.7754 122.951 88.5407 121.263 86.9776 120.497C86.0242 120.044 84.555 119.934 83.5859 120.247Z" fill="#FFE680"/>
<path d="M103.592 120.247C101.232 121.028 99.638 123.623 100.123 125.905C100.513 127.765 102.248 129.5 104.108 129.891C107.125 130.531 110.267 127.671 109.954 124.592C109.782 122.951 108.547 121.263 106.984 120.497C106.031 120.044 104.562 119.934 103.592 120.247Z" fill="#FFE680"/>
<path d="M123.599 120.247C121.239 121.028 119.645 123.623 120.129 125.905C120.52 127.765 122.255 129.5 124.115 129.891C127.131 130.531 130.273 127.671 129.961 124.592C129.789 122.951 128.554 121.263 126.991 120.497C126.037 120.044 124.568 119.934 123.599 120.247Z" fill="#FFE680"/>
<path d="M143.606 120.247C141.246 121.028 139.651 123.623 140.136 125.905C140.527 127.765 142.261 129.5 144.121 129.891C147.138 130.531 150.28 127.671 149.967 124.592C149.795 122.951 148.56 121.263 146.997 120.497C146.044 120.044 144.575 119.934 143.606 120.247Z" fill="#FFE680"/>
<path d="M163.612 120.247C161.971 120.794 160.486 122.451 160.142 124.123C159.47 127.343 162.69 130.563 165.91 129.891C168.332 129.39 170.208 126.921 169.974 124.592C169.802 122.951 168.567 121.263 167.004 120.497C166.05 120.044 164.581 119.934 163.612 120.247Z" fill="#FFE680"/>
<path d="M183.619 120.247C181.978 120.794 180.493 122.451 180.149 124.123C179.477 127.343 182.697 130.563 185.916 129.891C188.339 129.39 190.215 126.921 189.98 124.592C189.808 122.951 188.573 121.263 187.01 120.497C186.057 120.044 184.588 119.934 183.619 120.247Z" fill="#FFE680"/>
<path d="M3.55962 140.253C1.91846 140.8 0.433595 142.457 0.0897318 144.13C-0.582364 147.349 2.63744 150.569 5.85725 149.897C8.27992 149.397 10.1555 146.927 9.92109 144.599C9.74916 142.957 8.51437 141.269 6.95136 140.503C5.99792 140.05 4.52869 139.941 3.55962 140.253Z" fill="#FFE680"/>
<path d="M23.5662 140.253C21.925 140.8 20.4402 142.457 20.0963 144.13C19.4242 147.349 22.644 150.569 25.8638 149.897C28.2865 149.397 30.1621 146.927 29.9276 144.599C29.7557 142.957 28.5209 141.269 26.9579 140.503C26.0045 140.05 24.5353 139.941 23.5662 140.253Z" fill="#FFE680"/>
<path d="M43.5728 140.253C41.9316 140.8 40.4467 142.457 40.1029 144.13C39.7121 145.958 40.603 147.943 42.3223 149.116C43.9948 150.272 45.9016 150.288 47.5897 149.163C50.3562 147.318 50.7314 143.88 48.4181 141.582C47.0895 140.238 45.1827 139.722 43.5728 140.253Z" fill="#FFE680"/>
<path d="M63.5793 140.253C61.9382 140.8 60.4533 142.457 60.1094 144.13C59.7187 145.958 60.6096 147.943 62.3289 149.116C64.0013 150.272 65.9082 150.288 67.5963 149.163C70.3628 147.318 70.7379 143.88 68.4247 141.582C67.0961 140.238 65.1892 139.722 63.5793 140.253Z" fill="#FFE680"/>
<path d="M83.5859 140.253C81.2258 141.035 79.6315 143.629 80.116 145.911C80.5068 147.771 82.2417 149.506 84.1017 149.897C87.1183 150.538 90.26 147.678 89.9474 144.599C89.7754 142.957 88.5407 141.269 86.9776 140.503C86.0242 140.05 84.555 139.941 83.5859 140.253Z" fill="#FFE680"/>
<path d="M103.592 140.253C101.232 141.035 99.638 143.629 100.123 145.911C100.513 147.771 102.248 149.506 104.108 149.897C107.125 150.538 110.267 147.678 109.954 144.599C109.782 142.957 108.547 141.269 106.984 140.503C106.031 140.05 104.562 139.941 103.592 140.253Z" fill="#FFE680"/>
<path d="M123.599 140.253C121.239 141.035 119.645 143.629 120.129 145.911C120.52 147.771 122.255 149.506 124.115 149.897C127.131 150.538 130.273 147.678 129.961 144.599C129.789 142.957 128.554 141.269 126.991 140.503C126.037 140.05 124.568 139.941 123.599 140.253Z" fill="#FFE680"/>
<path d="M143.606 140.253C141.246 141.035 139.651 143.629 140.136 145.911C140.527 147.771 142.261 149.506 144.121 149.897C147.138 150.538 150.28 147.678 149.967 144.599C149.795 142.957 148.56 141.269 146.997 140.503C146.044 140.05 144.575 139.941 143.606 140.253Z" fill="#FFE680"/>
<path d="M163.612 140.253C161.971 140.8 160.486 142.457 160.142 144.13C159.47 147.349 162.69 150.569 165.91 149.897C168.332 149.397 170.208 146.927 169.974 144.599C169.802 142.957 168.567 141.269 167.004 140.503C166.05 140.05 164.581 139.941 163.612 140.253Z" fill="#FFE680"/>
<path d="M183.619 140.253C181.978 140.8 180.493 142.457 180.149 144.13C179.477 147.349 182.697 150.569 185.916 149.897C188.339 149.397 190.215 146.927 189.98 144.599C189.808 142.957 188.573 141.269 187.01 140.503C186.057 140.05 184.588 139.941 183.619 140.253Z" fill="#FFE680"/>
<path d="M3.55962 160.26C1.91846 160.807 0.433595 162.464 0.0897318 164.136C-0.582364 167.356 2.63744 170.576 5.85725 169.904C8.27992 169.404 10.1555 166.934 9.92109 164.605C9.74916 162.964 8.51437 161.276 6.95136 160.51C5.99792 160.057 4.52869 159.947 3.55962 160.26Z" fill="#FFE680"/>
<path d="M23.5662 160.26C21.925 160.807 20.4402 162.464 20.0963 164.136C19.4242 167.356 22.644 170.576 25.8638 169.904C28.2865 169.404 30.1621 166.934 29.9276 164.605C29.7557 162.964 28.5209 161.276 26.9579 160.51C26.0045 160.057 24.5353 159.947 23.5662 160.26Z" fill="#FFE680"/>
<path d="M43.5728 160.26C41.9316 160.807 40.4467 162.464 40.1029 164.136C39.7121 165.965 40.603 167.95 42.3223 169.122C43.9948 170.279 45.9016 170.294 47.5897 169.169C50.3562 167.325 50.7314 163.886 48.4181 161.588C47.0895 160.244 45.1827 159.728 43.5728 160.26Z" fill="#FFE680"/>
<path d="M63.5793 160.26C61.9382 160.807 60.4533 162.464 60.1094 164.136C59.7187 165.965 60.6096 167.95 62.3289 169.122C64.0013 170.279 65.9082 170.294 67.5963 169.169C70.3628 167.325 70.7379 163.886 68.4247 161.588C67.0961 160.244 65.1892 159.728 63.5793 160.26Z" fill="#FFE680"/>
<path d="M83.5859 160.26C81.9448 160.807 80.4599 162.464 80.116 164.136C79.4439 167.356 82.6637 170.576 85.8836 169.904C88.3062 169.404 90.1818 166.934 89.9474 164.605C89.7755 162.964 88.5407 161.276 86.9777 160.51C86.0242 160.057 84.555 159.947 83.5859 160.26Z" fill="#FFE680"/>
<path d="M103.592 160.26C101.951 160.807 100.466 162.464 100.123 164.136C99.4505 167.356 102.67 170.576 105.89 169.904C108.313 169.404 110.188 166.934 109.954 164.605C109.782 162.964 108.547 161.276 106.984 160.51C106.031 160.057 104.562 159.947 103.592 160.26Z" fill="#FFE680"/>
<path d="M123.599 160.26C121.958 160.807 120.473 162.464 120.129 164.136C119.457 167.356 122.677 170.576 125.897 169.904C128.319 169.404 130.195 166.934 129.96 164.605C129.789 162.964 128.554 161.276 126.991 160.51C126.037 160.057 124.568 159.947 123.599 160.26Z" fill="#FFE680"/>
<path d="M143.606 160.26C141.964 160.807 140.48 162.464 140.136 164.136C139.464 167.356 142.683 170.576 145.903 169.904C148.326 169.404 150.201 166.934 149.967 164.605C149.795 162.964 148.56 161.276 146.997 160.51C146.044 160.057 144.575 159.947 143.606 160.26Z" fill="#FFE680"/>
<path d="M163.612 160.26C161.971 160.807 160.486 162.464 160.142 164.136C159.47 167.356 162.69 170.576 165.91 169.904C168.332 169.404 170.208 166.934 169.974 164.605C169.802 162.964 168.567 161.276 167.004 160.51C166.05 160.057 164.581 159.947 163.612 160.26Z" fill="#FFE680"/>
<path d="M183.619 160.26C181.978 160.807 180.493 162.464 180.149 164.136C179.477 167.356 182.697 170.576 185.916 169.904C188.339 169.404 190.215 166.934 189.98 164.605C189.808 162.964 188.573 161.276 187.01 160.51C186.057 160.057 184.588 159.947 183.619 160.26Z" fill="#FFE680"/>
<path d="M3.55962 180.266C1.91846 180.814 0.433595 182.47 0.0897318 184.143C-0.582364 187.363 2.63744 190.582 5.85725 189.91C8.27992 189.41 10.1555 186.941 9.92109 184.612C9.74916 182.971 8.51437 181.282 6.95136 180.517C5.99792 180.063 4.52869 179.954 3.55962 180.266Z" fill="#FFE680"/>
<path d="M23.5662 180.266C21.925 180.814 20.4402 182.47 20.0963 184.143C19.4242 187.363 22.644 190.582 25.8638 189.91C28.2865 189.41 30.1621 186.941 29.9276 184.612C29.7557 182.971 28.5209 181.282 26.9579 180.517C26.0045 180.063 24.5353 179.954 23.5662 180.266Z" fill="#FFE680"/>
<path d="M43.5727 180.266C41.9316 180.814 40.4467 182.47 40.1029 184.143C39.4308 187.363 42.6506 190.582 45.8704 189.91C48.293 189.41 50.1687 186.941 49.9342 184.612C49.7623 182.971 48.5275 181.282 46.9645 180.517C46.011 180.063 44.5418 179.954 43.5727 180.266Z" fill="#FFE680"/>
<path d="M63.5794 180.266C61.9382 180.814 60.4533 182.47 60.1095 184.143C59.4374 187.363 62.6572 190.582 65.877 189.91C68.2997 189.41 70.1753 186.941 69.9408 184.612C69.7689 182.971 68.5341 181.282 66.9711 180.517C66.0177 180.063 64.5484 179.954 63.5794 180.266Z" fill="#FFE680"/>
<path d="M83.5859 180.266C81.9448 180.814 80.4599 182.47 80.116 184.143C79.4439 187.363 82.6637 190.582 85.8836 189.91C88.3062 189.41 90.1818 186.941 89.9474 184.612C89.7755 182.971 88.5407 181.282 86.9777 180.517C86.0242 180.063 84.555 179.954 83.5859 180.266Z" fill="#FFE680"/>
<path d="M103.592 180.266C101.951 180.814 100.466 182.47 100.123 184.143C99.4505 187.363 102.67 190.582 105.89 189.91C108.313 189.41 110.188 186.941 109.954 184.612C109.782 182.971 108.547 181.282 106.984 180.517C106.031 180.063 104.562 179.954 103.592 180.266Z" fill="#FFE680"/>
<path d="M123.599 180.266C121.958 180.814 120.473 182.47 120.129 184.143C119.457 187.363 122.677 190.582 125.897 189.91C128.319 189.41 130.195 186.941 129.96 184.612C129.789 182.971 128.554 181.282 126.991 180.517C126.037 180.063 124.568 179.954 123.599 180.266Z" fill="#FFE680"/>
<path d="M143.606 180.266C141.964 180.814 140.48 182.47 140.136 184.143C139.464 187.363 142.683 190.582 145.903 189.91C148.326 189.41 150.201 186.941 149.967 184.612C149.795 182.971 148.56 181.282 146.997 180.517C146.044 180.063 144.575 179.954 143.606 180.266Z" fill="#FFE680"/>
<path d="M163.612 180.266C161.971 180.814 160.486 182.47 160.142 184.143C159.47 187.363 162.69 190.582 165.91 189.91C168.332 189.41 170.208 186.941 169.974 184.612C169.802 182.971 168.567 181.282 167.004 180.517C166.05 180.063 164.581 179.954 163.612 180.266Z" fill="#FFE680"/>
<path d="M183.619 180.266C181.978 180.814 180.493 182.47 180.149 184.143C179.477 187.363 182.697 190.582 185.916 189.91C188.339 189.41 190.215 186.941 189.98 184.612C189.808 182.971 188.573 181.282 187.01 180.517C186.057 180.063 184.588 179.954 183.619 180.266Z" fill="#FFE680"/>
</svg>
