<?xml version="1.0" encoding="utf-8"?>
<!-- Generator: Adobe Illustrator 19.0.0, SVG Export Plug-In . SVG Version: 6.00 Build 0)  -->
<svg version="1.1" id="Warstwa_1" xmlns="http://www.w3.org/2000/svg" xmlns:xlink="http://www.w3.org/1999/xlink" x="0px" y="0px"
	 viewBox="0 0 28.4 36.8" style="enable-background:new 0 0 28.4 36.8;" xml:space="preserve">
<style type="text/css">
	.st0{fill:none;stroke:#D40511;stroke-width:2.0;stroke-miterlimit:10;}
</style>
<g id="XMLID_9_">
	<g id="XMLID_15_">
		<g id="XMLID_16_">
			<path id="XMLID_7_" class="st0" d="M1.3,19.6c1.8-1.7,3.7-1,5.4,0.7l3.4,2.7V7.8c0-3.3,4.1-3.3,4.1,0v8.2c0-1.2,1.2-2.2,2.4-2.2
				s2.4,1,2.4,2.2v1.7c0-1.2,0.5-2.2,1.8-2.2c1.3,0,2.3,1,2.3,2.2v2c0-1.2,0.8-2.2,2-2.2s2.1,1,2.1,2.2l-1.5,7.6c0,0-1.8,8-8.3,8
				c-5.1,0-8.1-4.3-8.1-4.3L1.3,19.6z"/>
			<line id="XMLID_6_" class="st0" x1="14.2" y1="15.2" x2="14.2" y2="18.4"/>
			<line id="XMLID_5_" class="st0" x1="19.1" y1="17.6" x2="19.1" y2="19.2"/>
			<line id="XMLID_4_" class="st0" x1="23.2" y1="19.2" x2="23.2" y2="20.9"/>
		</g>
	</g>
	<g id="XMLID_10_">
		<line id="XMLID_3_" class="st0" x1="4.5" y1="12.7" x2="4.5" y2="2.1"/>
		<g id="XMLID_11_">
			<line id="XMLID_2_" class="st0" x1="6.9" y1="10.9" x2="4.5" y2="13.5"/>
			<line id="XMLID_1_" class="st0" x1="2.2" y1="10.9" x2="4.5" y2="13.5"/>
		</g>
	</g>
</g>
</svg>
