<?xml version="1.0" encoding="utf-8"?>
<!-- Generator: Adobe Illustrator 19.0.0, SVG Export Plug-In . SVG Version: 6.00 Build 0)  -->
<svg version="1.1" id="Capa_1" xmlns="http://www.w3.org/2000/svg" xmlns:xlink="http://www.w3.org/1999/xlink" x="0px" y="0px"
	 viewBox="241 -238.1 512 512" style="enable-background:new 241 -238.1 512 512;" xml:space="preserve">
<style type="text/css">
	.st0{fill:#D40511;}
</style>
<g>
	<g>
		<path class="st0" d="M627.7,66.3c-35.6,0-64.5,29-64.5,64.5s29,64.5,64.5,64.5c35.6,0,64.5-29,64.5-64.5S663.3,66.3,627.7,66.3z
			 M627.7,163.1c-17.8,0-32.3-14.5-32.3-32.3c0-17.8,14.5-32.3,32.3-32.3S660,113,660,130.8C660,148.6,645.5,163.1,627.7,163.1z"/>
	</g>
</g>
<g>
	<g>
		<path class="st0" d="M407.2,66.3c-35.6,0-64.5,29-64.5,64.5s29,64.5,64.5,64.5s64.5-29,64.5-64.5S442.8,66.3,407.2,66.3z
			 M407.2,163.1c-17.8,0-32.3-14.5-32.3-32.3c0-17.8,14.5-32.3,32.3-32.3c17.8,0,32.3,14.5,32.3,32.3
			C439.5,148.6,425,163.1,407.2,163.1z"/>
	</g>
</g>
<g>
	<g>
		<path class="st0" d="M671.2-118.5c-2.7-5.4-8.3-8.9-14.4-8.9h-85v32.3h75l43.9,87.4l28.8-14.5L671.2-118.5z"/>
	</g>
</g>
<g>
	<g>
		<rect x="457.2" y="115.2" class="st0" width="122.1" height="32.3"/>
	</g>
</g>
<g>
	<g>
		<path class="st0" d="M358.8,115.2h-55.9c-8.9,0-16.1,7.2-16.1,16.1c0,8.9,7.2,16.1,16.1,16.1h55.9c8.9,0,16.1-7.2,16.1-16.1
			C374.9,122.4,367.7,115.2,358.8,115.2z"/>
	</g>
</g>
<g>
	<g>
		<path class="st0" d="M749.6,16.6l-31.7-40.9c-3-3.9-7.8-6.2-12.7-6.2H587.9v-112.9c0-8.9-7.2-16.1-16.1-16.1H302.8
			c-8.9,0-16.1,7.2-16.1,16.1c0,8.9,7.2,16.1,16.1,16.1h252.8v112.9c0,8.9,7.2,16.1,16.1,16.1h125.5L720.7,32v83.2h-44.6
			c-8.9,0-16.1,7.2-16.1,16.1c0,8.9,7.2,16.1,16.1,16.1h60.8c8.9,0,16.1-7.2,16.1-16.1V26.5C753,22.9,751.8,19.4,749.6,16.6z"/>
	</g>
</g>
<g>
	<g>
		<path class="st0 line-3" d="M357.7,33.4h-74.2c-8.9,0-16.1,7.2-16.1,16.1c0,8.9,7.2,16.1,16.1,16.1h74.2c8.9,0,16.1-7.2,16.1-16.1
			C373.8,40.7,366.6,33.4,357.7,33.4z"/>
	</g>
</g>
<g>
	<g>
		<path class="st0 line-2" d="M394.8-30H257.1c-8.9,0-16.1,7.2-16.1,16.1s7.2,16.1,16.1,16.1h137.7c8.9,0,16.1-7.2,16.1-16.1
			S403.7-30,394.8-30z"/>
	</g>
</g>
<g>
	<g>
		<path class="st0 line-1" d="M421.2-93.5H283.5c-8.9,0-16.1,7.2-16.1,16.1c0,8.9,7.2,16.1,16.1,16.1h137.7c8.9,0,16.1-7.2,16.1-16.1
			C437.3-86.3,430.1-93.5,421.2-93.5z"/>
	</g>
</g>
</svg>
